<svg width="14" height="14" viewBox="0 0 14 14" fill="none" xmlns="http://www.w3.org/2000/svg">
<path d="M8.58898 7L13.0421 2.54687C13.2535 2.3359 13.3723 2.04962 13.3726 1.75099C13.3729 1.45237 13.2545 1.16587 13.0435 0.95453C12.8325 0.743185 12.5463 0.624305 12.2476 0.624041C11.949 0.623778 11.6625 0.742152 11.4512 0.953123L6.99804 5.40625L2.54492 0.953123C2.33358 0.741779 2.04693 0.623047 1.74805 0.623047C1.44916 0.623047 1.16251 0.741779 0.95117 0.953123C0.739826 1.16447 0.621094 1.45111 0.621094 1.75C0.621094 2.04888 0.739826 2.33553 0.95117 2.54687L5.4043 7L0.95117 11.4531C0.739826 11.6645 0.621094 11.9511 0.621094 12.25C0.621094 12.5489 0.739826 12.8355 0.95117 13.0469C1.16251 13.2582 1.44916 13.3769 1.74805 13.3769C2.04693 13.3769 2.33358 13.2582 2.54492 13.0469L6.99804 8.59375L11.4512 13.0469C11.6625 13.2582 11.9492 13.3769 12.248 13.3769C12.5469 13.3769 12.8336 13.2582 13.0449 13.0469C13.2563 12.8355 13.375 12.5489 13.375 12.25C13.375 11.9511 13.2563 11.6645 13.0449 11.4531L8.58898 7Z" fill="#BDBFC6"/>
</svg>
