<svg width="32" height="32" viewBox="0 0 32 32" fill="none" xmlns="http://www.w3.org/2000/svg">
<g filter="url(#filter0_b_14449_23407)">
<rect width="32" height="32" rx="16" fill="url(#paint0_radial_14449_23407)"/>
<path d="M7 11.6875V23.125C7 23.8212 7.27656 24.4889 7.76884 24.9812C8.26113 25.4734 8.92881 25.75 9.625 25.75H22.375C23.0712 25.75 23.7389 25.4734 24.2312 24.9812C24.7234 24.4889 25 23.8212 25 23.125V11.6875C25 11.6378 24.9802 11.5901 24.9451 11.5549C24.9099 11.5198 24.8622 11.5 24.8125 11.5H7.1875C7.13777 11.5 7.09008 11.5198 7.05492 11.5549C7.01975 11.5901 7 11.6378 7 11.6875ZM19.5156 18.7952L16.5302 21.7802C16.3895 21.9207 16.1988 21.9997 16 21.9997C15.8012 21.9997 15.6105 21.9207 15.4698 21.7802L12.4844 18.7952C12.1989 18.5097 12.1727 18.0452 12.4445 17.7461C12.5128 17.6709 12.5956 17.6104 12.6879 17.5681C12.7803 17.5259 12.8802 17.5029 12.9817 17.5004C13.0832 17.498 13.1842 17.5161 13.2785 17.5539C13.3727 17.5916 13.4584 17.648 13.5302 17.7198L15.25 19.4392V14.5211C15.25 14.1175 15.5603 13.7711 15.9639 13.7509C16.0653 13.7461 16.1667 13.7618 16.2618 13.7972C16.3569 13.8327 16.4439 13.8871 16.5174 13.9571C16.5909 14.0271 16.6494 14.1114 16.6894 14.2047C16.7294 14.298 16.75 14.3985 16.75 14.5V19.4392L18.4698 17.7198C18.5416 17.648 18.6273 17.5916 18.7215 17.5539C18.8158 17.5161 18.9168 17.498 19.0183 17.5004C19.1198 17.5029 19.2197 17.5259 19.3121 17.5681C19.4044 17.6104 19.4872 17.6709 19.5555 17.7461C19.8273 18.0447 19.8011 18.5097 19.5156 18.7952Z" fill="#4B4950"/>
<path d="M25 6.25H7C6.17157 6.25 5.5 6.92157 5.5 7.75V8.5C5.5 9.32843 6.17157 10 7 10H25C25.8284 10 26.5 9.32843 26.5 8.5V7.75C26.5 6.92157 25.8284 6.25 25 6.25Z" fill="#4B4950"/>
</g>
<defs>
<filter id="filter0_b_14449_23407" x="-8" y="-8" width="48" height="48" filterUnits="userSpaceOnUse" color-interpolation-filters="sRGB">
<feFlood flood-opacity="0" result="BackgroundImageFix"/>
<feGaussianBlur in="BackgroundImage" stdDeviation="4"/>
<feComposite in2="SourceAlpha" operator="in" result="effect1_backgroundBlur_14449_23407"/>
<feBlend mode="normal" in="SourceGraphic" in2="effect1_backgroundBlur_14449_23407" result="shape"/>
</filter>
<radialGradient id="paint0_radial_14449_23407" cx="0" cy="0" r="1" gradientUnits="userSpaceOnUse" gradientTransform="translate(19.6951 113.6) rotate(-98.7105) scale(141.518 61.2336)">
<stop stop-color="white" stop-opacity="0"/>
<stop offset="1" stop-color="white"/>
</radialGradient>
</defs>
</svg>
