<svg width="32" height="32" viewBox="0 0 32 32" fill="none" xmlns="http://www.w3.org/2000/svg">
<g filter="url(#filter0_b_14449_23408)">
<rect width="32" height="32" rx="16" fill="url(#paint0_radial_14449_23408)"/>
<path d="M24.25 8.5H19.75V7.375C19.75 6.87772 19.5525 6.40081 19.2008 6.04917C18.8492 5.69754 18.3723 5.5 17.875 5.5H14.125C13.6277 5.5 13.1508 5.69754 12.7992 6.04917C12.4475 6.40081 12.25 6.87772 12.25 7.375V8.5H7.75C7.55109 8.5 7.36032 8.57902 7.21967 8.71967C7.07902 8.86032 7 9.05109 7 9.25C7 9.44891 7.07902 9.63968 7.21967 9.78033C7.36032 9.92098 7.55109 10 7.75 10H8.54688L9.4375 24.2931C9.50406 25.5517 10.4688 26.5 11.6875 26.5H20.3125C21.5373 26.5 22.4828 25.5728 22.5625 24.2969L23.4531 10H24.25C24.4489 10 24.6397 9.92098 24.7803 9.78033C24.921 9.63968 25 9.44891 25 9.25C25 9.05109 24.921 8.86032 24.7803 8.71967C24.6397 8.57902 24.4489 8.5 24.25 8.5ZM13.0267 23.5H13C12.8056 23.5001 12.6188 23.4248 12.4789 23.2899C12.339 23.1549 12.2569 22.971 12.25 22.7767L11.875 12.2767C11.8679 12.0778 11.9401 11.8842 12.0758 11.7386C12.2114 11.5929 12.3994 11.5071 12.5983 11.5C12.7972 11.4929 12.9908 11.5651 13.1364 11.7008C13.2821 11.8364 13.3679 12.0244 13.375 12.2233L13.75 22.7233C13.7536 22.8218 13.7377 22.92 13.7033 23.0124C13.6688 23.1048 13.6165 23.1894 13.5494 23.2616C13.4822 23.3337 13.4015 23.3919 13.3118 23.4328C13.2221 23.4737 13.1252 23.4966 13.0267 23.5ZM16.75 22.75C16.75 22.9489 16.671 23.1397 16.5303 23.2803C16.3897 23.421 16.1989 23.5 16 23.5C15.8011 23.5 15.6103 23.421 15.4697 23.2803C15.329 23.1397 15.25 22.9489 15.25 22.75V12.25C15.25 12.0511 15.329 11.8603 15.4697 11.7197C15.6103 11.579 15.8011 11.5 16 11.5C16.1989 11.5 16.3897 11.579 16.5303 11.7197C16.671 11.8603 16.75 12.0511 16.75 12.25V22.75ZM18.25 8.5H13.75V7.375C13.7494 7.3256 13.7587 7.27658 13.7774 7.23083C13.796 7.18507 13.8236 7.14351 13.8586 7.10858C13.8935 7.07364 13.9351 7.04604 13.9808 7.02739C14.0266 7.00875 14.0756 6.99943 14.125 7H17.875C17.9244 6.99943 17.9734 7.00875 18.0192 7.02739C18.0649 7.04604 18.1065 7.07364 18.1414 7.10858C18.1764 7.14351 18.204 7.18507 18.2226 7.23083C18.2413 7.27658 18.2506 7.3256 18.25 7.375V8.5ZM19.75 22.7767C19.7431 22.971 19.661 23.1549 19.5211 23.2899C19.3812 23.4248 19.1944 23.5001 19 23.5H18.9728C18.8743 23.4965 18.7775 23.4736 18.6879 23.4327C18.5983 23.3917 18.5176 23.3335 18.4505 23.2614C18.3833 23.1893 18.3311 23.1046 18.2967 23.0123C18.2623 22.92 18.2464 22.8217 18.25 22.7233L18.625 12.2233C18.6285 12.1248 18.6514 12.028 18.6923 11.9383C18.7332 11.8487 18.7914 11.7679 18.8636 11.7008C18.9357 11.6336 19.0203 11.5813 19.1127 11.5469C19.205 11.5124 19.3032 11.4965 19.4017 11.5C19.5002 11.5035 19.597 11.5264 19.6867 11.5673C19.7763 11.6082 19.8571 11.6664 19.9242 11.7386C19.9914 11.8107 20.0437 11.8953 20.0781 11.9877C20.1126 12.08 20.1285 12.1782 20.125 12.2767L19.75 22.7767Z" fill="#4B4950"/>
</g>
<defs>
<filter id="filter0_b_14449_23408" x="-8" y="-8" width="48" height="48" filterUnits="userSpaceOnUse" color-interpolation-filters="sRGB">
<feFlood flood-opacity="0" result="BackgroundImageFix"/>
<feGaussianBlur in="BackgroundImage" stdDeviation="4"/>
<feComposite in2="SourceAlpha" operator="in" result="effect1_backgroundBlur_14449_23408"/>
<feBlend mode="normal" in="SourceGraphic" in2="effect1_backgroundBlur_14449_23408" result="shape"/>
</filter>
<radialGradient id="paint0_radial_14449_23408" cx="0" cy="0" r="1" gradientUnits="userSpaceOnUse" gradientTransform="translate(19.6951 113.6) rotate(-98.7105) scale(141.518 61.2336)">
<stop stop-color="white" stop-opacity="0"/>
<stop offset="1" stop-color="white"/>
</radialGradient>
</defs>
</svg>
