<svg width="32" height="32" viewBox="0 0 32 32" fill="none" xmlns="http://www.w3.org/2000/svg">
<g filter="url(#filter0_b_14449_23406)">
<rect width="32" height="32" rx="16" fill="url(#paint0_radial_14449_23406)"/>
<path d="M24.9981 25.7501C24.8996 25.7503 24.8021 25.7309 24.7111 25.6932C24.6201 25.6554 24.5375 25.6001 24.468 25.5303L6.46798 7.53025C6.33327 7.38845 6.25928 7.19964 6.26178 7.00407C6.26428 6.8085 6.34309 6.62164 6.48139 6.48334C6.61969 6.34504 6.80655 6.26624 7.00212 6.26373C7.19769 6.26123 7.3865 6.33522 7.5283 6.46994L25.5283 24.4699C25.6331 24.5748 25.7045 24.7084 25.7334 24.8539C25.7623 24.9993 25.7475 25.1501 25.6907 25.2871C25.634 25.4241 25.5379 25.5412 25.4146 25.6236C25.2914 25.706 25.1464 25.75 24.9981 25.7501Z" fill="#4B4950"/>
<path d="M24.6275 19.9989C24.5496 19.9052 24.4732 19.8114 24.3982 19.7209C23.367 18.4736 22.7431 17.7208 22.7431 14.1897C22.7431 12.3616 22.3057 10.8616 21.4437 9.73656C20.8081 8.90547 19.9489 8.275 18.8164 7.80906C18.8018 7.80096 18.7888 7.79032 18.7779 7.77766C18.3706 6.41359 17.2559 5.5 15.9987 5.5C14.7415 5.5 13.6273 6.41359 13.22 7.77625C13.2091 7.78845 13.1962 7.79875 13.182 7.80672C12.8273 7.95178 12.4844 8.12417 12.1564 8.32234C12.1079 8.3519 12.0667 8.39208 12.0361 8.43985C12.0054 8.48762 11.9859 8.54173 11.9792 8.59811C11.9725 8.65449 11.9786 8.71166 11.9972 8.76531C12.0158 8.81895 12.0463 8.86768 12.0865 8.90781L24.3575 21.1769C24.4126 21.2321 24.4837 21.2688 24.5607 21.2817C24.6378 21.2946 24.7169 21.2831 24.7871 21.2489C24.8573 21.2147 24.915 21.1594 24.9523 21.0908C24.9896 21.0222 25.0045 20.9436 24.995 20.8661C24.9588 20.5476 24.8312 20.2464 24.6275 19.9989Z" fill="#4B4950"/>
<path d="M9.25599 14.1882C9.25599 17.7207 8.63302 18.4735 7.60083 19.7194C7.52583 19.8099 7.44943 19.9018 7.37161 19.9974C7.17061 20.2398 7.04326 20.5347 7.00464 20.8472C6.96601 21.1598 7.01772 21.4768 7.15365 21.7608C7.44286 22.3702 8.05927 22.7485 8.76286 22.7485H18.6619C18.7361 22.7486 18.8087 22.7266 18.8704 22.6854C18.9321 22.6442 18.9803 22.5856 19.0087 22.517C19.0371 22.4485 19.0445 22.373 19.03 22.3003C19.0155 22.2275 18.9797 22.1606 18.9272 22.1082L9.92724 13.1082C9.87663 13.0577 9.81266 13.0228 9.74286 13.0075C9.67307 12.9922 9.60035 12.9971 9.53327 13.0218C9.46619 13.0464 9.40754 13.0897 9.36423 13.1465C9.32092 13.2033 9.29475 13.2714 9.2888 13.3426C9.26693 13.6141 9.25599 13.896 9.25599 14.1882Z" fill="#4B4950"/>
<path d="M15.9989 26.5C16.6763 26.4994 17.3409 26.3156 17.9222 25.9679C18.5035 25.6202 18.9799 25.1217 19.3008 24.5252C19.3159 24.4966 19.3234 24.4646 19.3225 24.4322C19.3216 24.3999 19.3123 24.3684 19.2956 24.3407C19.2789 24.313 19.2553 24.2901 19.2272 24.2742C19.199 24.2583 19.1672 24.25 19.1349 24.25H12.8639C12.8316 24.2499 12.7997 24.2582 12.7715 24.274C12.7432 24.2899 12.7196 24.3128 12.7028 24.3405C12.6861 24.3682 12.6768 24.3997 12.6759 24.4321C12.6749 24.4645 12.6824 24.4965 12.6975 24.5252C13.0184 25.1216 13.4947 25.6201 14.0759 25.9678C14.6572 26.3155 15.3217 26.4994 15.9989 26.5Z" fill="#4B4950"/>
</g>
<defs>
<filter id="filter0_b_14449_23406" x="-8" y="-8" width="48" height="48" filterUnits="userSpaceOnUse" color-interpolation-filters="sRGB">
<feFlood flood-opacity="0" result="BackgroundImageFix"/>
<feGaussianBlur in="BackgroundImage" stdDeviation="4"/>
<feComposite in2="SourceAlpha" operator="in" result="effect1_backgroundBlur_14449_23406"/>
<feBlend mode="normal" in="SourceGraphic" in2="effect1_backgroundBlur_14449_23406" result="shape"/>
</filter>
<radialGradient id="paint0_radial_14449_23406" cx="0" cy="0" r="1" gradientUnits="userSpaceOnUse" gradientTransform="translate(19.6951 113.6) rotate(-98.7105) scale(141.518 61.2336)">
<stop stop-color="white" stop-opacity="0"/>
<stop offset="1" stop-color="white"/>
</radialGradient>
</defs>
</svg>
