<svg width="14" height="13" viewBox="0 0 14 13" fill="none" xmlns="http://www.w3.org/2000/svg">
<path d="M13.0564 9.94026C13.008 9.84606 12.9398 9.76339 12.8566 9.69787C12.7734 9.63235 12.677 9.58553 12.5741 9.56057C12.3031 9.48885 11.9872 9.50104 11.7458 9.48323C9.46643 9.32475 7.32148 8.34651 5.70737 6.72932C4.2724 5.30239 3.33982 3.44792 3.05002 1.4451C2.9844 0.988541 2.9844 0.875103 2.9844 0.875103C2.98437 0.722775 2.93796 0.574065 2.85134 0.448762C2.76472 0.323458 2.64199 0.227502 2.4995 0.173659C2.357 0.119816 2.20149 0.110639 2.05365 0.14735C1.90581 0.184061 1.77265 0.264919 1.6719 0.379166C1.6719 0.379166 1.30252 0.781353 1.12815 1.18495C0.639092 2.31176 0.43053 3.54035 0.520333 4.76543C0.610137 5.99051 0.995628 7.17556 1.64377 8.21901C1.76565 8.42198 1.76565 8.51573 1.73846 8.72667C1.61049 9.38807 1.38643 10.5548 1.26971 11.1599C1.23107 11.3562 1.24544 11.5592 1.31135 11.748C1.37727 11.9369 1.49234 12.1047 1.64471 12.2343L1.66627 12.2526C1.86784 12.4127 2.11762 12.4999 2.37502 12.5001C2.51981 12.5002 2.66318 12.4717 2.7969 12.4162L5.30518 11.4482C5.39154 11.4154 5.48694 11.4154 5.5733 11.4482C6.56096 11.8157 7.58893 12.0107 8.56299 12.0107C9.77665 12.0119 10.9756 11.7452 12.0744 11.2298C12.3303 11.1098 12.7306 10.9795 12.965 10.7085C13.0537 10.6034 13.1097 10.4747 13.1259 10.3381C13.1421 10.2015 13.118 10.0632 13.0564 9.94026Z" fill="#4B4950"/>
</svg>
