<svg width="8" height="11" viewBox="0 0 8 11" fill="none" xmlns="http://www.w3.org/2000/svg">
<path d="M3.86115 10.168C3.21715 10.168 2.66648 10.042 2.20915 9.79C1.75182 9.538 1.39248 9.202 1.13115 8.782C0.879149 8.362 0.725149 7.90467 0.669148 7.41H2.05515C2.13915 7.89533 2.33982 8.26867 2.65715 8.53C2.97448 8.79133 3.38048 8.922 3.87515 8.922C4.55648 8.922 5.11648 8.60467 5.55515 7.97C6.00315 7.326 6.24115 6.34133 6.26915 5.016C6.04515 5.42667 5.69515 5.77667 5.21915 6.066C4.75248 6.35533 4.21115 6.5 3.59515 6.5C3.04448 6.5 2.52648 6.36933 2.04115 6.108C1.55582 5.84667 1.16382 5.48267 0.865149 5.016C0.566482 4.54 0.417148 3.98 0.417148 3.336C0.417148 2.76667 0.557148 2.23 0.837148 1.726C1.11715 1.222 1.50915 0.815999 2.01315 0.508C2.52648 0.190666 3.13315 0.0319998 3.83315 0.0319998C4.55182 0.0319998 5.15848 0.167333 5.65315 0.438C6.14782 0.708666 6.54448 1.068 6.84315 1.516C7.14182 1.964 7.35648 2.468 7.48715 3.028C7.62715 3.588 7.69715 4.162 7.69715 4.75C7.69715 5.83267 7.54315 6.78 7.23515 7.592C6.93648 8.404 6.50248 9.03867 5.93315 9.496C5.36382 9.944 4.67315 10.168 3.86115 10.168ZM3.93115 5.226C4.32315 5.226 4.67315 5.13733 4.98115 4.96C5.28915 4.78267 5.53182 4.54933 5.70915 4.26C5.89582 3.96133 5.98915 3.63467 5.98915 3.28C5.98915 2.89733 5.89582 2.56133 5.70915 2.272C5.53182 1.97333 5.28448 1.74 4.96715 1.572C4.65915 1.404 4.30915 1.32 3.91715 1.32C3.52515 1.32 3.17515 1.404 2.86715 1.572C2.55915 1.74 2.31182 1.97333 2.12515 2.272C1.94782 2.56133 1.85915 2.89267 1.85915 3.266C1.85915 3.86333 2.05515 4.33933 2.44715 4.694C2.83915 5.04867 3.33382 5.226 3.93115 5.226Z" fill="white"/>
</svg>
