<svg width="20" height="20" viewBox="0 0 20 20" fill="none" xmlns="http://www.w3.org/2000/svg">
<path d="M0 2.25C0 1.65326 0.237053 1.08097 0.65901 0.65901C1.08097 0.237053 1.65326 0 2.25 0H15.75C16.3467 0 16.919 0.237053 17.341 0.65901C17.7629 1.08097 18 1.65326 18 2.25V8.012C17.5224 7.97015 17.0415 8.03352 16.5911 8.19766C16.1406 8.36179 15.7317 8.6227 15.393 8.962L12.355 12H8.25C8.05109 12 7.86032 12.079 7.71967 12.2197C7.57902 12.3603 7.5 12.5511 7.5 12.75C7.5 12.9489 7.57902 13.1397 7.71967 13.2803C7.86032 13.421 8.05109 13.5 8.25 13.5H10.855L9.49 14.865C9.01747 15.3372 8.68218 15.929 8.52 16.577L8.166 18H2.25C1.65326 18 1.08097 17.7629 0.65901 17.341C0.237053 16.919 0 16.3467 0 15.75V2.25ZM4.75 6.25C5.01522 6.25 5.26957 6.14464 5.45711 5.95711C5.64464 5.76957 5.75 5.51522 5.75 5.25C5.75 4.98478 5.64464 4.73043 5.45711 4.54289C5.26957 4.35536 5.01522 4.25 4.75 4.25C4.48478 4.25 4.23043 4.35536 4.04289 4.54289C3.85536 4.73043 3.75 4.98478 3.75 5.25C3.75 5.51522 3.85536 5.76957 4.04289 5.95711C4.23043 6.14464 4.48478 6.25 4.75 6.25ZM8.25 4.5C8.05109 4.5 7.86032 4.57902 7.71967 4.71967C7.57902 4.86032 7.5 5.05109 7.5 5.25C7.5 5.44891 7.57902 5.63968 7.71967 5.78033C7.86032 5.92098 8.05109 6 8.25 6H13.75C13.9489 6 14.1397 5.92098 14.2803 5.78033C14.421 5.63968 14.5 5.44891 14.5 5.25C14.5 5.05109 14.421 4.86032 14.2803 4.71967C14.1397 4.57902 13.9489 4.5 13.75 4.5H8.25ZM8.25 8.25C8.05109 8.25 7.86032 8.32902 7.71967 8.46967C7.57902 8.61032 7.5 8.80109 7.5 9C7.5 9.19891 7.57902 9.38968 7.71967 9.53033C7.86032 9.67098 8.05109 9.75 8.25 9.75H13.75C13.9489 9.75 14.1397 9.67098 14.2803 9.53033C14.421 9.38968 14.5 9.19891 14.5 9C14.5 8.80109 14.421 8.61032 14.2803 8.46967C14.1397 8.32902 13.9489 8.25 13.75 8.25H8.25ZM3.75 9C3.75 9.26522 3.85536 9.51957 4.04289 9.70711C4.23043 9.89464 4.48478 10 4.75 10C5.01522 10 5.26957 9.89464 5.45711 9.70711C5.64464 9.51957 5.75 9.26522 5.75 9C5.75 8.73478 5.64464 8.48043 5.45711 8.29289C5.26957 8.10536 5.01522 8 4.75 8C4.48478 8 4.23043 8.10536 4.04289 8.29289C3.85536 8.48043 3.75 8.73478 3.75 9ZM4.75 13.75C5.01522 13.75 5.26957 13.6446 5.45711 13.4571C5.64464 13.2696 5.75 13.0152 5.75 12.75C5.75 12.4848 5.64464 12.2304 5.45711 12.0429C5.26957 11.8554 5.01522 11.75 4.75 11.75C4.48478 11.75 4.23043 11.8554 4.04289 12.0429C3.85536 12.2304 3.75 12.4848 3.75 12.75C3.75 13.0152 3.85536 13.2696 4.04289 13.4571C4.23043 13.6446 4.48478 13.75 4.75 13.75ZM16.1 9.67L10.197 15.572C9.85308 15.9161 9.60907 16.3471 9.491 16.819L9.033 18.65C8.98745 18.8322 8.98987 19.023 9.04003 19.204C9.09019 19.385 9.18637 19.5498 9.31921 19.6826C9.45204 19.8153 9.61699 19.9114 9.79799 19.9614C9.97899 20.0114 10.1699 20.0137 10.352 19.968L12.182 19.511C12.6544 19.3929 13.0858 19.1485 13.43 18.804L19.332 12.902C19.7441 12.4701 19.9709 11.8941 19.9639 11.2971C19.9569 10.7002 19.7166 10.1297 19.2945 9.70753C18.8723 9.28539 18.3018 9.04514 17.7049 9.03813C17.1079 9.03112 16.5319 9.2579 16.1 9.67Z" fill="#1F1D25"/>
</svg>
