<svg width="32" height="32" viewBox="0 0 32 32" fill="none" xmlns="http://www.w3.org/2000/svg">
<rect width="32" height="32" rx="4" fill="#4B4950"/>
<path d="M25.4073 23.7527L20.9969 19.3422C22.0587 17.9286 22.6319 16.208 22.63 14.44C22.63 9.92406 18.9559 6.25 14.44 6.25C9.92406 6.25 6.25 9.92406 6.25 14.44C6.25 18.9559 9.92406 22.63 14.44 22.63C16.208 22.6319 17.9286 22.0587 19.3422 20.9969L23.7527 25.4073C23.9759 25.6069 24.2671 25.7135 24.5664 25.7051C24.8658 25.6967 25.1506 25.574 25.3623 25.3623C25.574 25.1506 25.6967 24.8658 25.7051 24.5664C25.7135 24.2671 25.6069 23.9759 25.4073 23.7527ZM8.59 14.44C8.59 13.283 8.9331 12.1519 9.5759 11.1899C10.2187 10.2279 11.1324 9.47808 12.2013 9.03531C13.2703 8.59253 14.4465 8.47668 15.5813 8.70241C16.7161 8.92813 17.7584 9.48529 18.5766 10.3034C19.3947 11.1216 19.9519 12.1639 20.1776 13.2987C20.4033 14.4335 20.2875 15.6098 19.8447 16.6787C19.4019 17.7476 18.6521 18.6613 17.6901 19.3041C16.7281 19.9469 15.597 20.29 14.44 20.29C12.8891 20.2881 11.4022 19.6712 10.3055 18.5745C9.2088 17.4778 8.59186 15.9909 8.59 14.44Z" fill="white"/>
</svg>
