<svg width="24" height="24" viewBox="0 0 24 24" fill="none" xmlns="http://www.w3.org/2000/svg">
<path d="M20.9981 21.7501C20.8996 21.7503 20.8021 21.7309 20.7111 21.6932C20.6201 21.6554 20.5375 21.6001 20.468 21.5303L2.46798 3.53025C2.33327 3.38845 2.25928 3.19964 2.26178 3.00407C2.26428 2.8085 2.34309 2.62164 2.48139 2.48334C2.61969 2.34504 2.80655 2.26624 3.00212 2.26373C3.19769 2.26123 3.3865 2.33522 3.5283 2.46994L21.5283 20.4699C21.6331 20.5748 21.7045 20.7084 21.7334 20.8539C21.7623 20.9993 21.7475 21.1501 21.6907 21.2871C21.634 21.4241 21.5379 21.5412 21.4146 21.6236C21.2914 21.706 21.1464 21.75 20.9981 21.7501Z" fill="#1F1D25"/>
<path d="M20.6275 15.9989C20.5496 15.9052 20.4732 15.8114 20.3982 15.7209C19.367 14.4736 18.7431 13.7208 18.7431 10.1897C18.7431 8.36156 18.3057 6.86156 17.4437 5.73656C16.8081 4.90547 15.9489 4.275 14.8164 3.80906C14.8018 3.80096 14.7888 3.79032 14.7779 3.77766C14.3706 2.41359 13.2559 1.5 11.9987 1.5C10.7415 1.5 9.6273 2.41359 9.21995 3.77625C9.20908 3.78845 9.19625 3.79875 9.18198 3.80672C8.82727 3.95178 8.48437 4.12417 8.15636 4.32234C8.10788 4.3519 8.06674 4.39208 8.03606 4.43985C8.00537 4.48762 7.98593 4.54173 7.9792 4.59811C7.97248 4.65449 7.97864 4.71166 7.99723 4.76531C8.01582 4.81895 8.04635 4.86768 8.08651 4.90781L20.3575 17.1769C20.4126 17.2321 20.4837 17.2688 20.5607 17.2817C20.6378 17.2946 20.7169 17.2831 20.7871 17.2489C20.8573 17.2147 20.915 17.1594 20.9523 17.0908C20.9896 17.0222 21.0045 16.9436 20.995 16.8661C20.9588 16.5476 20.8312 16.2464 20.6275 15.9989Z" fill="#1F1D25"/>
<path d="M5.25599 10.1879C5.25599 13.7204 4.63302 14.4733 3.60083 15.7192C3.52583 15.8097 3.44943 15.9015 3.37161 15.9972C3.17061 16.2396 3.04326 16.5345 3.00464 16.847C2.96601 17.1595 3.01772 17.4766 3.15365 17.7606C3.44286 18.37 4.05927 18.7483 4.76286 18.7483H14.6619C14.7361 18.7483 14.8087 18.7264 14.8704 18.6852C14.9321 18.6439 14.9803 18.5854 15.0087 18.5168C15.0371 18.4482 15.0445 18.3728 15.03 18.3C15.0155 18.2272 14.9797 18.1604 14.9272 18.1079L5.92724 9.10794C5.87663 9.0575 5.81266 9.02256 5.74286 9.00725C5.67307 8.99193 5.60035 8.99688 5.53327 9.02151C5.46619 9.04613 5.40754 9.08941 5.36423 9.14625C5.32092 9.20308 5.29475 9.27111 5.2888 9.34232C5.26693 9.61388 5.25599 9.89576 5.25599 10.1879Z" fill="#1F1D25"/>
<path d="M11.9989 22.5C12.6763 22.4994 13.3409 22.3156 13.9222 21.9679C14.5035 21.6202 14.9799 21.1217 15.3008 20.5252C15.3159 20.4966 15.3234 20.4646 15.3225 20.4322C15.3216 20.3999 15.3123 20.3684 15.2956 20.3407C15.2789 20.313 15.2553 20.2901 15.2272 20.2742C15.199 20.2583 15.1672 20.25 15.1349 20.25H8.86394C8.83156 20.2499 8.7997 20.2582 8.77147 20.274C8.74324 20.2899 8.7196 20.3128 8.70284 20.3405C8.68608 20.3682 8.67679 20.3997 8.67586 20.4321C8.67493 20.4645 8.6824 20.4965 8.69753 20.5252C9.01841 21.1216 9.49471 21.6201 10.0759 21.9678C10.6572 22.3155 11.3217 22.4994 11.9989 22.5Z" fill="#1F1D25"/>
</svg>
