<svg width="8" height="10" viewBox="0 0 8 10" fill="none" xmlns="http://www.w3.org/2000/svg">
<path d="M0.792141 10V8.936C1.42681 8.432 2.03347 7.92333 2.61214 7.41C3.19081 6.89667 3.70414 6.39267 4.15214 5.898C4.60947 5.394 4.96881 4.904 5.23014 4.428C5.49147 3.94267 5.62214 3.476 5.62214 3.028C5.62214 2.72933 5.57081 2.44933 5.46814 2.188C5.36547 1.91733 5.19747 1.70267 4.96414 1.544C4.73081 1.376 4.41814 1.292 4.02614 1.292C3.43814 1.292 2.99481 1.47867 2.69614 1.852C2.40681 2.22533 2.26681 2.67333 2.27614 3.196H0.834141C0.843474 2.50533 0.988141 1.92667 1.26814 1.46C1.55747 0.993333 1.94014 0.638666 2.41614 0.395999C2.90147 0.153333 3.44747 0.0319998 4.05414 0.0319998C4.97814 0.0319998 5.71547 0.293333 6.26614 0.816C6.82614 1.32933 7.10614 2.048 7.10614 2.972C7.10614 3.52267 6.97081 4.06867 6.70014 4.61C6.43881 5.15133 6.09347 5.674 5.66414 6.178C5.24414 6.67267 4.79147 7.13933 4.30614 7.578C3.82081 8.01667 3.35881 8.41333 2.92014 8.768H7.40014V10H0.792141Z" fill="white"/>
</svg>
