<svg width="20" height="29" viewBox="0 0 20 29" fill="none" xmlns="http://www.w3.org/2000/svg">
<path d="M19 28C18.7554 28.0007 18.5191 27.9118 18.3356 27.75L10 20.3381L1.66438 27.75C1.52013 27.8782 1.34185 27.962 1.15107 27.9911C0.960278 28.0203 0.765129 27.9936 0.589166 27.9143C0.413203 27.835 0.263945 27.7065 0.159403 27.5443C0.0548606 27.382 -0.000499115 27.193 3.39081e-06 27V4C0.00116143 2.93949 0.422961 1.92275 1.17286 1.17285C1.92275 0.422957 2.93949 0.00115803 4 0H16C17.0605 0.00115803 18.0773 0.422957 18.8272 1.17285C19.577 1.92275 19.9988 2.93949 20 4V27C20 27.2652 19.8946 27.5196 19.7071 27.7071C19.5196 27.8946 19.2652 28 19 28Z" fill="url(#paint0_linear_17767_18498)"/>
<defs>
<linearGradient id="paint0_linear_17767_18498" x1="-20.8408" y1="2.1138e-06" x2="20.6592" y2="1.01366" gradientUnits="userSpaceOnUse">
<stop stop-color="#F7CA16"/>
<stop offset="1" stop-color="#F69744"/>
</linearGradient>
</defs>
</svg>
