<svg width="400" height="516" viewBox="0 0 400 516" fill="none" xmlns="http://www.w3.org/2000/svg">
<g clip-path="url(#clip0_17608_39608)">
<path fill-rule="evenodd" clip-rule="evenodd" d="M75.7667 68.82L113.405 48.1843L145.608 65.8006L151.117 68.82L113.457 89.2534L107.706 86.1358L75.7667 68.82ZM227.24 68.82L264.879 48.1843L297.082 65.8006L302.59 68.82L264.93 89.2534L259.179 86.1358L227.24 68.82ZM378.713 68.82L416.352 48.1843L448.555 65.8006L454.063 68.82L416.403 89.2534L410.652 86.1358L378.713 68.82ZM-38.1484 11.8012V47.9851L-76 68.7212V105.01L-38.1484 125.763V161.775L-76 182.511V218.8L-38.1367 239.559V275.529L-76 296.271V332.56L-38.1367 353.319V389.359L-76 410.101V446.39L-38.1484 467.143V503.29L-0.279327 524.053H-0.210938H-0.148438H-0.0859375H-0.036087L37.6916 503.289L75.4507 524.053H75.5191H75.5816H75.6441H75.6939L113.382 503.371L151.187 524.053H151.256H151.318H151.381H151.431L189.216 503.318L226.924 524.053H226.992H227.055H227.117H227.167L264.855 503.371L302.661 524.053H302.729H302.792H302.854H302.904L340.69 503.318L378.397 524.053H378.466H378.528H378.591H378.641L416.328 503.371L454.134 524.053H454.202H454.265H454.327H454.377L492.215 503.289L492.217 467L454.363 446.27L454.365 410.233H454.389L492.227 389.469L492.229 353.18L454.363 332.444L454.365 296.403H454.389L492.227 275.639L492.229 239.35L454.363 218.614L454.365 182.653H454.377L492.215 161.889L492.217 125.6L454.363 104.87L454.365 68.8526H454.377L492.215 48.0893L492.217 11.8L454.235 -9L416.374 11.7417L378.499 -8.99998L340.637 11.7417L302.762 -9L264.9 11.7417L227.025 -8.99998L189.164 11.7417L151.289 -9L113.427 11.7417L75.5521 -8.99998L37.6936 11.7398L-0.17794 -9L-38.1484 11.8012ZM416.358 389.561L442.707 403.975L454.063 410.2L416.403 430.633L410.652 427.516L378.713 410.2L416.358 389.561ZM264.884 389.561L291.234 403.975L302.59 410.2L264.93 430.633L259.179 427.516L227.24 410.2L264.884 389.561ZM113.411 389.561L139.76 403.975L151.117 410.2L113.457 430.633L107.706 427.516L75.7667 410.2L113.411 389.561ZM0.0324783 410.201L1.3223 409.491L37.7008 389.547L75.38 410.2L37.72 430.633L31.9691 427.516L0.0324783 410.201ZM379.122 409.713L416.19 389.341L416.217 378.026L416.276 353.46L378.65 373.94L378.652 409.97L379.122 409.713ZM303.342 409.737L340.453 389.341L340.54 353.46L302.913 373.94L302.916 409.97L303.342 409.737ZM227.649 409.713L264.717 389.341L264.744 378.026L264.803 353.46L227.177 373.94L227.179 409.97L227.649 409.713ZM151.864 409.739L188.98 389.341L189.067 353.46L151.44 373.94L151.442 409.97L151.864 409.739ZM76.1753 409.713L113.243 389.341L113.271 378.026L113.329 353.46L75.7033 373.94L75.7056 409.97L76.1753 409.713ZM7.45183 405.871L37.5933 389.341V353.46L-0.0267181 373.94L-0.0243683 409.967L7.45183 405.871ZM416.593 467.115L454.247 446.453L491.915 467.1L454.255 487.533L448.504 484.416L416.593 467.115ZM340.857 467.115L378.477 446.471L412.114 464.872L416.178 467.1L378.518 487.533L372.767 484.416L340.857 467.115ZM265.12 467.115L302.774 446.453L340.442 467.1L302.782 487.533L297.031 484.416L265.12 467.115ZM189.383 467.115L227.004 446.471L260.64 464.872L264.705 467.1L227.045 487.533L221.294 484.416L189.383 467.115ZM113.647 467.115L151.301 446.453L188.968 467.1L151.308 487.533L145.557 484.416L113.647 467.115ZM37.91 467.115L75.5302 446.471L109.166 464.872L113.232 467.1L75.5716 487.533L69.8206 484.416L37.91 467.115ZM-37.82 467.115L-22.9917 458.955L-0.177658 446.447L37.5016 467.1L-0.158432 487.533L-5.90936 484.416L-37.82 467.115ZM435.102 456.682L454.063 446.261L454.15 410.38L416.523 430.86L416.526 466.858L435.102 456.682ZM359.359 456.685L378.327 446.261L378.354 434.946L378.413 410.38L340.787 430.86L340.789 466.858L359.359 456.685ZM283.619 456.687L302.59 446.261L302.677 410.38L265.05 430.86L265.052 466.858L283.619 456.687ZM207.886 456.685L226.853 446.261L226.881 434.946L226.939 410.38L189.313 430.86L189.316 466.858L207.886 456.685ZM132.144 456.688L151.117 446.261L151.203 410.38L113.577 430.86L113.579 466.858L132.144 456.688ZM56.4163 456.683L75.38 446.261L75.4073 434.946L75.466 410.38L37.84 430.86L37.8424 466.858L56.4163 456.683ZM37.5991 466.888L37.6 430.86L31.8664 427.706L-0.048912 410.379L-0.0499954 410.731V446.26L28.8621 462.103L37.5991 466.888ZM-0.269997 446.25V410.38L-37.89 430.86L-37.8876 466.858L-0.269997 446.25ZM-0.0243683 296.137L7.38999 292.075L37.5933 275.511V239.63L-0.0267181 260.11L-0.0243683 296.137ZM75.7056 296.14L76.158 295.892L113.243 275.511L113.271 264.195L113.329 239.63L75.7033 260.11L75.7056 296.14ZM151.442 296.14L151.846 295.919L188.98 275.511L189.067 239.63L151.44 260.11L151.442 296.14ZM227.179 296.14L227.631 295.892L264.717 275.511L264.744 264.195L264.803 239.63L227.177 260.11L227.179 296.14ZM302.916 296.14L303.324 295.917L340.453 275.511L340.54 239.63L302.913 260.11L302.916 296.14ZM378.652 296.14L379.105 295.892L416.19 275.511L416.217 264.195L416.276 239.63L378.65 260.11L378.652 296.14ZM31.9691 313.686L0.0324478 296.371L1.30769 295.67L37.7008 275.717L75.38 296.37L37.72 316.803L31.9691 313.686ZM75.7667 296.37L113.411 275.731L139.733 290.13L151.117 296.37L113.457 316.803L107.706 313.686L75.7667 296.37ZM227.24 296.37L264.884 275.731L291.206 290.13L302.59 296.37L264.93 316.803L259.179 313.686L227.24 296.37ZM378.713 296.37L416.358 275.731L442.679 290.13L454.063 296.37L416.403 316.803L410.652 313.686L378.713 296.37ZM-37.8876 353.045L-10.3497 337.959L-0.269997 332.431V296.55L-37.89 317.03L-37.8876 353.045ZM37.8424 353.045L47.0939 347.977L75.38 332.431L75.4073 321.116L75.466 296.55L37.84 317.03L37.8424 353.045ZM113.579 353.045L122.843 347.97L151.117 332.431L151.203 296.55L113.577 317.03L113.579 353.045ZM189.316 353.045L198.562 347.98L226.853 332.431L226.881 321.116L226.939 296.55L189.313 317.03L189.316 353.045ZM265.052 353.045L274.32 347.968L302.59 332.431L302.677 296.55L265.05 317.03L265.052 353.045ZM340.789 353.045L350.035 347.98L378.327 332.431L378.354 321.116L378.413 296.55L340.787 317.03L340.789 353.045ZM416.526 353.045L425.798 347.965L454.063 332.431L454.15 296.55L416.523 317.03L416.526 353.045ZM-5.89764 370.596L-37.8233 353.287L-30.8446 349.447L-0.165939 332.627L37.5133 353.28L-0.146713 373.713L-5.89764 370.596ZM69.8324 370.596L37.9067 353.287L67.8675 336.846L75.5336 332.643L105.925 349.269L113.243 353.28L75.5833 373.713L69.8324 370.596ZM145.569 370.596L113.643 353.287L143.57 336.865L151.301 332.627L188.98 353.28L151.32 373.713L145.569 370.596ZM221.306 370.596L189.38 353.287L219.32 336.858L227.007 332.643L257.4 349.269L264.717 353.28L227.057 373.713L221.306 370.596ZM297.042 370.596L265.117 353.287L295.016 336.88L302.774 332.627L340.453 353.28L302.793 373.713L297.042 370.596ZM372.779 370.596L340.853 353.287L370.794 336.858L378.48 332.643L408.873 349.269L416.19 353.28L378.53 373.713L372.779 370.596ZM448.516 370.596L416.59 353.287L446.468 336.892L454.247 332.627L491.927 353.28L454.267 373.713L448.516 370.596ZM416.343 161.979L454.06 182.612L416.403 203.043L410.652 199.926L378.716 182.611L384.153 179.628L416.343 161.979ZM376.211 181.45L378.323 182.612L340.667 203.043L334.916 199.926L302.979 182.611L308.33 179.675L340.647 161.957L376.211 181.45ZM264.87 161.979L302.586 182.612L264.93 203.043L259.179 199.926L227.242 182.611L232.679 179.628L264.87 161.979ZM224.738 181.45L226.85 182.612L189.193 203.043L183.442 199.926L151.506 182.611L156.857 179.675L189.174 161.957L224.738 181.45ZM113.396 161.979L151.113 182.612L113.457 203.043L107.706 199.926L75.7691 182.611L81.2207 179.62L113.396 161.979ZM73.265 181.451L75.3766 182.612L37.72 203.043L31.9691 199.926L0.0356827 182.613L2.99766 180.983L37.7008 161.957L73.265 181.451ZM-28.2684 167.307L-0.353531 182.612L-38.01 203.043L-43.7609 199.926L-75.7 182.61L-38.0292 161.957L-28.2684 167.307ZM454.134 182.383L454.135 146.36L448.401 143.206L416.485 125.878V161.76L432.047 170.288L454.134 182.383ZM381.105 181.037L416.178 161.761L416.206 150.445L416.264 125.88L378.638 146.36L378.641 182.387L381.105 181.037ZM378.397 182.383L378.398 146.36L372.665 143.206L340.748 125.878V161.76L356.265 170.263L378.397 182.383ZM305.351 181.046L340.442 161.761L340.528 125.88L302.902 146.36L302.904 182.387L305.351 181.046ZM302.661 182.383L302.662 146.36L296.928 143.206L265.012 125.878V161.76L280.545 170.272L302.661 182.383ZM229.632 181.037L264.705 161.761L264.732 150.445L264.791 125.88L227.165 146.36L227.167 182.387L229.632 181.037ZM226.924 182.383L226.925 146.36L221.191 143.206L189.275 125.878V161.76L204.792 170.263L226.924 182.383ZM153.869 181.051L188.968 161.761L189.055 125.88L151.428 146.36L151.431 182.387L153.869 181.051ZM151.187 182.383L151.188 146.36L145.455 143.206L113.538 125.878V161.76L129.061 170.266L151.187 182.383ZM78.1537 181.039L113.232 161.761L113.259 150.445L113.318 125.88L75.6916 146.36L75.6939 182.387L78.1537 181.039ZM75.4507 182.383L75.4516 146.36L69.718 143.206L37.8027 125.879L37.8016 126.231V161.76L53.3012 170.254L75.4507 182.383ZM13.4014 175.022L37.5816 161.761V125.88L-0.0384369 146.36L-0.036087 182.383L13.4014 175.022ZM-0.279327 182.383L-0.278442 146.36L-6.01201 143.206L-37.9284 125.878V161.76L-22.4416 170.247L-0.279327 182.383ZM416.654 239.492L454.308 218.83L491.927 239.45L454.267 259.883L448.516 256.766L416.654 239.492ZM340.918 239.492L378.477 218.882L416.133 239.481L378.53 259.883L372.779 256.766L340.918 239.492ZM305.184 220.117L340.397 239.481L302.793 259.883L297.042 256.766L265.181 239.492L302.834 218.83L305.184 220.117ZM189.444 239.492L227.004 218.882L264.66 239.481L227.057 259.883L221.306 256.766L189.444 239.492ZM153.719 220.122L188.923 239.481L151.32 259.883L145.569 256.766L113.708 239.492L151.361 218.83L153.719 220.122ZM37.9709 239.492L75.5302 218.882L113.186 239.481L75.5833 259.883L69.8324 256.766L37.9709 239.492ZM0.164017 218.978L37.4534 239.482L-0.146713 259.883L-5.89764 256.766L-37.7592 239.492L-0.160522 218.8L0.164017 218.978ZM454.063 218.651L454.15 182.79L416.523 203.27L416.526 239.215L454.063 218.651ZM416.282 239.235L416.283 203.27L410.55 200.116L378.633 182.788V218.617L416.282 239.235ZM378.327 218.651L378.354 207.356L378.413 182.79L340.787 203.27L340.789 239.215L378.327 218.651ZM340.546 239.235L340.547 203.27L334.813 200.116L302.897 182.788V218.617L340.546 239.235ZM302.59 218.651L302.677 182.79L265.05 203.27L265.052 239.215L302.59 218.651ZM264.809 239.235L264.81 203.27L259.076 200.116L227.16 182.788V218.617L264.809 239.235ZM226.853 218.651L226.881 207.356L226.939 182.79L189.313 203.27L189.316 239.215L226.853 218.651ZM189.072 239.235L189.073 203.27L183.34 200.116L151.423 182.788V218.617L189.072 239.235ZM151.117 218.651L151.203 182.79L113.577 203.27L113.579 239.215L151.117 218.651ZM113.336 239.235L113.337 203.27L107.603 200.116L75.6867 182.788V218.617L113.336 239.235ZM75.3801 218.651L75.4073 207.356L75.466 182.79L37.84 203.27L37.8423 239.215L75.3801 218.651ZM37.5991 239.232L37.6 203.27L31.8664 200.116L-0.048912 182.789L-0.0499954 183.141V218.614L37.5991 239.232ZM-0.269997 218.607V182.79L-37.89 203.27L-37.8876 239.215L-0.269997 218.607ZM-37.8876 125.458L-0.269997 104.85V69L-37.89 89.4803L-37.8876 125.458ZM-0.0499954 104.87L37.5991 125.488L37.6 89.4803L31.8664 86.3264L-0.048912 68.9987L-0.0499954 69.3506V104.87ZM37.8424 125.458L67.7767 109.06L75.38 104.881L75.4073 93.5655L75.466 69.0004L37.84 89.4803L37.8424 125.458ZM75.6867 104.874L113.336 125.492L113.337 89.4803L107.603 86.3264L75.6867 68.9981V104.874ZM113.579 125.458L143.515 109.059L151.117 104.881L151.203 69L113.577 89.4803L113.579 125.458ZM151.423 104.874L189.072 125.492L189.073 89.4803L183.34 86.3264L151.423 68.9981V104.874ZM189.316 125.458L219.249 109.06L226.853 104.881L226.881 93.5655L226.939 69.0004L189.313 89.4803L189.316 125.458ZM227.16 104.874L264.809 125.492L264.81 89.4803L259.076 86.3264L227.16 68.9981V104.874ZM265.052 125.458L294.99 109.058L302.59 104.881L302.677 69L265.05 89.4803L265.052 125.458ZM302.897 104.874L340.546 125.492L340.547 89.4803L334.813 86.3264L302.897 68.9981V104.874ZM340.789 125.458L370.723 109.06L378.327 104.881L378.354 93.5655L378.413 69.0004L340.787 89.4803L340.789 125.458ZM378.633 104.874L416.282 125.492L416.283 89.4803L410.55 86.3264L378.633 68.9981V104.874ZM416.526 125.458L446.478 109.049L454.063 104.881L454.15 69L416.523 89.4803L416.526 125.458ZM-5.90936 143.016L-37.8017 125.725L-13.4057 112.299L-0.177658 105.047L26.6672 119.761L37.4842 125.709L-0.158432 146.133L-5.90936 143.016ZM69.8206 143.016L37.9284 125.725L75.5302 105.091L113.217 125.708L75.5716 146.133L69.8206 143.016ZM145.557 143.016L113.665 125.725L151.319 105.063L180.225 120.908L188.954 125.708L151.308 146.133L145.557 143.016ZM221.294 143.016L189.402 125.725L227.004 105.091L264.691 125.708L227.045 146.133L221.294 143.016ZM297.031 143.016L265.138 125.725L302.792 105.063L331.696 120.906L340.428 125.708L302.782 146.133L297.031 143.016ZM372.767 143.016L340.875 125.725L378.477 105.091L416.164 125.708L378.518 146.133L372.767 143.016ZM448.504 143.016L416.612 125.725L454.265 105.063L491.915 125.7L454.255 146.133L448.504 143.016ZM378.638 32.5603L416.264 12.0804L416.206 36.6456L416.178 47.9609L378.641 68.5911L378.638 32.5603ZM227.165 32.5603L264.791 12.0804L264.732 36.6456L264.705 47.9609L227.167 68.5911L227.165 32.5603ZM75.6916 32.5603L113.318 12.0804L113.259 36.6456L113.232 47.9609L75.6939 68.5911L75.6916 32.5603ZM37.8016 12.4306V47.96L75.4507 68.5911L75.4516 32.5603L69.718 29.4064L37.8027 12.0787L37.8016 12.4306ZM-37.8484 11.9L-0.177658 -8.75333L37.5016 11.9L-0.158432 32.3334L-5.90936 29.2158L-37.8484 11.9ZM37.5816 12.08L-0.0384369 32.5603L-0.036087 68.5911L37.5816 47.9609V12.08ZM-0.278442 32.5603L-6.01201 29.4064L-37.9284 12.0781V47.96L-0.279327 68.5911L-0.278442 32.5603ZM37.8816 11.9L75.5523 -8.75332L113.232 11.9L75.5716 32.3334L69.8206 29.2158L37.8816 11.9ZM151.289 -8.75333L113.618 11.9L145.557 29.2158L151.308 32.3334L188.968 11.9L151.289 -8.75333ZM151.428 32.5603L189.055 12.08L188.968 47.9609L151.431 68.5911L151.428 32.5603ZM145.455 29.4064L151.188 32.5603L151.187 68.5911L113.538 47.96V12.0781L145.455 29.4064ZM189.355 11.9L227.026 -8.75332L264.705 11.9L227.045 32.3334L221.294 29.2158L189.355 11.9ZM226.925 32.5603L221.191 29.4064L189.275 12.0781V47.96L226.924 68.5911L226.925 32.5603ZM302.762 -8.75333L265.092 11.9L297.031 29.2158L302.782 32.3334L340.442 11.9L302.762 -8.75333ZM302.902 32.5603L340.528 12.08L340.442 47.9609L302.904 68.5911L302.902 32.5603ZM296.928 29.4064L302.662 32.5603L302.661 68.5911L265.012 47.96V12.0781L296.928 29.4064ZM340.828 11.9L378.499 -8.75332L416.178 11.9L378.518 32.3334L372.767 29.2158L340.828 11.9ZM378.398 32.5603L372.665 29.4064L340.748 12.0781V47.96L378.397 68.5911L378.398 32.5603ZM454.236 -8.75333L416.565 11.9L448.504 29.2158L454.255 32.3334L491.915 11.9L454.236 -8.75333ZM454.375 32.5603L492.002 12.08L491.915 47.9609L454.377 68.5911L454.375 32.5603ZM448.401 29.4064L454.135 32.5603L454.134 68.5911L416.485 47.96V12.0781L448.401 29.4064ZM454.375 146.36L492.002 125.88L491.915 161.761L454.377 182.391L454.375 146.36ZM37.8133 275.51V239.981L37.8144 239.629L69.7297 256.956L75.4633 260.11L75.4624 296.141L37.8133 275.51ZM-6.00029 256.956L-0.266724 260.11L-0.267609 296.141L-37.9167 275.51V239.628L-6.00029 256.956ZM151.2 260.11L145.466 256.956L113.55 239.628V275.51L151.199 296.141L151.2 260.11ZM221.203 256.956L226.937 260.11L226.936 296.141L189.287 275.51V239.628L221.203 256.956ZM302.673 260.11L296.94 256.956L265.023 239.628V275.51L302.672 296.141L302.673 260.11ZM372.676 256.956L378.41 260.11L378.409 296.141L340.76 275.51V239.628L372.676 256.956ZM492.013 239.63L454.387 260.11L454.389 296.141L491.927 275.511L492.013 239.63ZM454.147 260.11L448.413 256.956L416.497 239.628V275.51L454.146 296.141L454.147 260.11ZM37.8133 353.811V389.34L75.4624 409.971L75.4633 373.94L69.7297 370.786L37.8144 353.459L37.8133 353.811ZM-0.266724 373.94L-6.00029 370.786L-37.9167 353.458V389.34L-0.267609 409.971L-0.266724 373.94ZM145.466 370.786L151.2 373.94L151.199 409.971L113.55 389.34V353.458L145.466 370.786ZM226.937 373.94L221.203 370.786L189.287 353.458V389.34L226.936 409.971L226.937 373.94ZM296.94 370.786L302.673 373.94L302.672 409.971L265.023 389.34V353.458L296.94 370.786ZM378.41 373.94L372.676 370.786L340.76 353.458V389.34L378.409 409.971L378.41 373.94ZM454.387 373.94L492.013 353.46L491.927 389.341L454.389 409.971L454.387 373.94ZM448.413 370.786L454.147 373.94L454.146 409.971L416.497 389.34V353.458L448.413 370.786ZM416.265 467.28L378.638 487.76L378.641 523.791L416.178 503.161L416.265 467.28ZM302.902 487.76L340.528 467.28L340.442 503.161L302.904 523.791L302.902 487.76ZM264.792 467.28L227.165 487.76L227.167 523.791L264.705 503.161L264.792 467.28ZM151.428 487.76L189.055 467.28L188.968 503.161L151.431 523.791L151.428 487.76ZM113.318 467.28L75.6916 487.76L75.6939 523.791L113.232 503.161L113.318 467.28ZM37.8016 503.16V467.631L37.8027 467.279L69.718 484.606L75.4516 487.76L75.4507 523.791L37.8016 503.16ZM-0.0384369 487.76L37.5816 467.28V503.161L-0.036087 523.791L-0.0384369 487.76ZM-6.01201 484.606L-0.278442 487.76L-0.279327 523.791L-37.9284 503.16V467.278L-6.01201 484.606ZM151.188 487.76L145.455 484.606L113.538 467.278V503.16L151.187 523.791L151.188 487.76ZM221.191 484.606L226.925 487.76L226.924 523.791L189.275 503.16V467.278L221.191 484.606ZM302.662 487.76L296.928 484.606L265.012 467.278V503.16L302.661 523.791L302.662 487.76ZM372.665 484.606L378.398 487.76L378.397 523.791L340.748 503.16V467.278L372.665 484.606ZM492.002 467.28L454.375 487.76L454.377 523.791L491.915 503.161L492.002 467.28ZM454.135 487.76L448.401 484.606L416.485 467.278V503.16L454.134 523.791L454.135 487.76ZM-75.7 68.82L-38.0292 48.1666L-0.349998 68.82L-38.01 89.2533L-43.7609 86.1358L-75.7 68.82ZM-38.13 89.4803L-43.8636 86.3264L-75.78 68.9981V104.88L-38.1309 125.511L-38.13 89.4803ZM0.0300064 68.82L37.7008 48.1667L75.38 68.82L37.72 89.2534L31.9691 86.1358L0.0300064 68.82ZM151.503 68.82L189.174 48.1667L226.853 68.82L189.193 89.2534L183.442 86.1358L151.503 68.82ZM302.977 68.82L340.647 48.1667L378.327 68.82L340.667 89.2534L334.916 86.1358L302.977 68.82ZM-43.8636 200.116L-38.13 203.27L-38.1309 239.301L-75.78 218.67V182.788L-43.8636 200.116ZM-0.0499954 296.901V332.43L37.5991 353.061L37.6 317.03L31.8664 313.876L-0.048912 296.549L-0.0499954 296.901ZM-75.7 296.37L-38.0292 275.717L-0.349998 296.37L-38.01 316.803L-43.7609 313.686L-75.7 296.37ZM-38.13 317.03L-43.8636 313.876L-75.78 296.548V332.43L-38.1309 353.061L-38.13 317.03ZM107.603 313.876L113.337 317.03L113.336 353.061L75.6867 332.43V296.548L107.603 313.876ZM151.503 296.37L189.174 275.717L226.853 296.37L189.193 316.803L183.442 313.686L151.503 296.37ZM189.073 317.03L183.34 313.876L151.423 296.548V332.43L189.072 353.061L189.073 317.03ZM259.076 313.876L264.81 317.03L264.809 353.061L227.16 332.43V296.548L259.076 313.876ZM302.977 296.37L340.647 275.717L378.327 296.37L340.667 316.803L334.916 313.686L302.977 296.37ZM340.547 317.03L334.813 313.876L302.897 296.548V332.43L340.546 353.061L340.547 317.03ZM410.55 313.876L416.283 317.03L416.282 353.061L378.633 332.43V296.548L410.55 313.876ZM-38.0292 389.547L-75.7 410.2L-43.7609 427.516L-38.01 430.633L-0.349998 410.2L-38.0292 389.547ZM-43.8636 427.706L-38.13 430.86L-38.1309 466.891L-75.78 446.26V410.378L-43.8636 427.706ZM113.337 430.86L107.603 427.706L75.6867 410.378V446.26L113.336 466.891L113.337 430.86ZM189.174 389.547L151.503 410.2L183.442 427.516L189.193 430.633L226.853 410.2L189.174 389.547ZM183.34 427.706L189.073 430.86L189.072 466.891L151.423 446.26V410.378L183.34 427.706ZM264.81 430.86L259.076 427.706L227.16 410.378V446.26L264.809 466.891L264.81 430.86ZM340.647 389.547L302.977 410.2L334.916 427.516L340.667 430.633L378.327 410.2L340.647 389.547ZM334.813 427.706L340.547 430.86L340.546 466.891L302.897 446.26V410.378L334.813 427.706ZM416.283 430.86L410.55 427.706L378.633 410.378V446.26L416.282 466.891L416.283 430.86Z" fill="#CFD2E4"/>
</g>
<defs>
<clipPath id="clip0_17608_39608">
<rect width="400" height="516" fill="white"/>
</clipPath>
</defs>
</svg>
